<svg width="77" height="77" viewBox="0 0 77 77" fill="none" xmlns="http://www.w3.org/2000/svg">
<path d="M67.4556 35.4521V60.9583C67.4556 62.7229 66.8273 64.2335 65.5707 65.4901C64.3141 66.7467 62.8035 67.375 61.0389 67.375H16.1223C14.3577 67.375 12.8471 66.7467 11.5905 65.4901C10.3339 64.2335 9.70561 62.7229 9.70561 60.9583V35.4521C8.47575 34.3292 7.52662 32.8854 6.85821 31.1208C6.18981 29.3562 6.17644 27.4312 6.81811 25.3458L10.1869 14.4375C10.6146 13.0472 11.3766 11.8976 12.4728 10.9885C13.569 10.0795 14.8389 9.625 16.2827 9.625H60.8785C62.3223 9.625 63.5789 10.0661 64.6483 10.9484C65.7178 11.8307 66.4931 12.9937 66.9744 14.4375L70.3431 25.3458C70.9848 27.4312 70.9714 29.3295 70.303 31.0406C69.6346 32.7517 68.6855 34.2222 67.4556 35.4521ZM45.6389 32.0833C47.0827 32.0833 48.1789 31.5887 48.9275 30.5995C49.6761 29.6102 49.9702 28.5007 49.8098 27.2708L48.0452 16.0417H41.7889V27.9125C41.7889 29.0354 42.1632 30.0113 42.9119 30.8401C43.6605 31.6689 44.5695 32.0833 45.6389 32.0833ZM31.2014 32.0833C32.4313 32.0833 33.4339 31.6689 34.2093 30.8401C34.9846 30.0113 35.3723 29.0354 35.3723 27.9125V16.0417H29.116L27.3514 27.2708C27.1376 28.5542 27.4183 29.6771 28.1936 30.6396C28.969 31.6021 29.9716 32.0833 31.2014 32.0833ZM16.9244 32.0833C17.8869 32.0833 18.729 31.7358 19.4509 31.0406C20.1728 30.3455 20.6139 29.4632 20.7744 28.3937L22.5389 16.0417H16.2827L13.0744 26.7896C12.7535 27.859 12.9273 29.0087 13.5957 30.2385C14.2641 31.4684 15.3737 32.0833 16.9244 32.0833ZM60.2369 32.0833C61.7876 32.0833 62.9105 31.4684 63.6056 30.2385C64.3007 29.0087 64.4612 27.859 64.0869 26.7896L60.7181 16.0417H54.6223L56.3869 28.3937C56.5473 29.4632 56.9884 30.3455 57.7103 31.0406C58.4322 31.7358 59.2744 32.0833 60.2369 32.0833ZM16.1223 60.9583H61.0389V38.3396C60.7716 38.4465 60.5978 38.5 60.5176 38.5H60.2369C58.7931 38.5 57.5231 38.2594 56.427 37.7781C55.3308 37.2969 54.248 36.5215 53.1785 35.4521C52.216 36.4146 51.1198 37.1632 49.89 37.6979C48.6601 38.2326 47.3501 38.5 45.9598 38.5C44.516 38.5 43.1659 38.2326 41.9093 37.6979C40.6527 37.1632 39.5431 36.4146 38.5806 35.4521C37.6716 36.4146 36.6155 37.1632 35.4124 37.6979C34.2093 38.2326 32.9126 38.5 31.5223 38.5C29.9716 38.5 28.5679 38.2326 27.3113 37.6979C26.0547 37.1632 24.9452 36.4146 23.9827 35.4521C22.8598 36.575 21.7502 37.3637 20.654 37.8182C19.5579 38.2727 18.3146 38.5 16.9244 38.5H16.5634C16.4297 38.5 16.2827 38.4465 16.1223 38.3396V60.9583Z" fill="#FFF9D7"/>
</svg>
