<svg width="200" height="200" viewBox="0 0 200 200" fill="none" xmlns="http://www.w3.org/2000/svg">
<path d="M76.458 90.2084C69.9302 83.6806 66.6663 75.8334 66.6663 66.6667C66.6663 57.5 69.9302 49.6528 76.458 43.125C82.9858 36.5973 90.833 33.3334 99.9997 33.3334C109.166 33.3334 117.014 36.5973 123.541 43.125C130.069 49.6528 133.333 57.5 133.333 66.6667C133.333 75.8334 130.069 83.6806 123.541 90.2084C117.014 96.7362 109.166 100 99.9997 100C90.833 100 82.9858 96.7362 76.458 90.2084ZM33.333 166.667V143.333C33.333 138.611 34.5483 134.271 36.9788 130.313C39.4094 126.354 42.6386 123.333 46.6663 121.25C55.2775 116.944 64.0275 113.715 72.9163 111.563C81.8052 109.41 90.833 108.333 99.9997 108.333C109.166 108.333 118.194 109.41 127.083 111.563C135.972 113.715 144.722 116.944 153.333 121.25C157.361 123.333 160.59 126.354 163.021 130.313C165.451 134.271 166.666 138.611 166.666 143.333V166.667H33.333ZM49.9997 150H150V143.333C150 141.806 149.618 140.417 148.854 139.167C148.09 137.917 147.083 136.944 145.833 136.25C138.333 132.5 130.764 129.688 123.125 127.813C115.486 125.938 107.777 125 99.9997 125C92.2219 125 84.5136 125.938 76.8747 127.813C69.2358 129.688 61.6663 132.5 54.1663 136.25C52.9163 136.944 51.9094 137.917 51.1455 139.167C50.3816 140.417 49.9997 141.806 49.9997 143.333V150ZM111.771 78.4375C115.034 75.1737 116.666 71.25 116.666 66.6667C116.666 62.0834 115.034 58.1598 111.771 54.8959C108.507 51.632 104.583 50 99.9997 50C95.4163 50 91.4927 51.632 88.2288 54.8959C84.965 58.1598 83.333 62.0834 83.333 66.6667C83.333 71.25 84.965 75.1737 88.2288 78.4375C91.4927 81.7014 95.4163 83.3334 99.9997 83.3334C104.583 83.3334 108.507 81.7014 111.771 78.4375Z" fill="#FFF9D7"/>
</svg>
