<svg width="41" height="41" viewBox="0 0 41 41" fill="none" xmlns="http://www.w3.org/2000/svg">
<path d="M8.54297 37.5837C7.60339 37.5837 6.79905 37.2491 6.12995 36.58C5.46085 35.9109 5.1263 35.1066 5.1263 34.167V14.9055C4.6138 14.5923 4.20095 14.1866 3.88776 13.6883C3.57457 13.1901 3.41797 12.6135 3.41797 11.9587V6.83366C3.41797 5.89408 3.75252 5.08974 4.42161 4.42064C5.09071 3.75154 5.89505 3.41699 6.83464 3.41699H34.168C35.1076 3.41699 35.9119 3.75154 36.581 4.42064C37.2501 5.08974 37.5846 5.89408 37.5846 6.83366V11.9587C37.5846 12.6135 37.428 13.1901 37.1148 13.6883C36.8017 14.1866 36.3888 14.5923 35.8763 14.9055V34.167C35.8763 35.1066 35.5418 35.9109 34.8727 36.58C34.2036 37.2491 33.3992 37.5837 32.4596 37.5837H8.54297ZM8.54297 15.3753V34.167H32.4596V15.3753H8.54297ZM6.83464 11.9587H34.168V6.83366H6.83464V11.9587ZM15.3763 23.917H25.6263V20.5003H15.3763V23.917Z" fill="#FFF9D7"/>
</svg>
