<svg width="41" height="41" viewBox="0 0 41 41" fill="none" xmlns="http://www.w3.org/2000/svg">
<path d="M10.25 37.5827C8.82639 37.5827 7.61632 37.0844 6.61979 36.0879C5.62326 35.0914 5.125 33.8813 5.125 32.4577V27.3327H10.25V3.41602L12.8125 5.97852L15.375 3.41602L17.9375 5.97852L20.5 3.41602L23.0625 5.97852L25.625 3.41602L28.1875 5.97852L30.75 3.41602L33.3125 5.97852L35.875 3.41602V32.4577C35.875 33.8813 35.3767 35.0914 34.3802 36.0879C33.3837 37.0844 32.1736 37.5827 30.75 37.5827H10.25ZM30.75 34.166C31.234 34.166 31.6398 34.0023 31.9672 33.6749C32.2946 33.3474 32.4583 32.9417 32.4583 32.4577V8.54102H13.6667V27.3327H29.0417V32.4577C29.0417 32.9417 29.2054 33.3474 29.5328 33.6749C29.8602 34.0023 30.266 34.166 30.75 34.166ZM15.375 15.3743V11.9577H25.625V15.3743H15.375ZM15.375 20.4993V17.0827H25.625V20.4993H15.375ZM29.0417 15.3743C28.5576 15.3743 28.1519 15.2106 27.8245 14.8832C27.497 14.5558 27.3333 14.15 27.3333 13.666C27.3333 13.182 27.497 12.7763 27.8245 12.4488C28.1519 12.1214 28.5576 11.9577 29.0417 11.9577C29.5257 11.9577 29.9314 12.1214 30.2589 12.4488C30.5863 12.7763 30.75 13.182 30.75 13.666C30.75 14.15 30.5863 14.5558 30.2589 14.8832C29.9314 15.2106 29.5257 15.3743 29.0417 15.3743ZM29.0417 20.4993C28.5576 20.4993 28.1519 20.3356 27.8245 20.0082C27.497 19.6808 27.3333 19.275 27.3333 18.791C27.3333 18.307 27.497 17.9013 27.8245 17.5738C28.1519 17.2464 28.5576 17.0827 29.0417 17.0827C29.5257 17.0827 29.9314 17.2464 30.2589 17.5738C30.5863 17.9013 30.75 18.307 30.75 18.791C30.75 19.275 30.5863 19.6808 30.2589 20.0082C29.9314 20.3356 29.5257 20.4993 29.0417 20.4993ZM10.25 34.166H25.625V30.7493H8.54167V32.4577C8.54167 32.9417 8.70538 33.3474 9.03281 33.6749C9.36024 34.0023 9.76597 34.166 10.25 34.166Z" fill="#FFF9D7"/>
</svg>
