<svg width="41" height="41" viewBox="0 0 41 41" fill="none" xmlns="http://www.w3.org/2000/svg">
<path d="M29.5115 34.5938L35.4479 28.7L33.6542 26.9062L29.5115 30.9635L27.8458 29.2979L26.0521 31.1344L29.5115 34.5938ZM10.25 15.375H30.75V11.9583H10.25V15.375ZM30.75 39.2917C28.3868 39.2917 26.3724 38.4589 24.7068 36.7932C23.0411 35.1276 22.2083 33.1132 22.2083 30.75C22.2083 28.3868 23.0411 26.3724 24.7068 24.7068C26.3724 23.0411 28.3868 22.2083 30.75 22.2083C33.1132 22.2083 35.1276 23.0411 36.7932 24.7068C38.4589 26.3724 39.2917 28.3868 39.2917 30.75C39.2917 33.1132 38.4589 35.1276 36.7932 36.7932C35.1276 38.4589 33.1132 39.2917 30.75 39.2917ZM5.125 37.5833V8.54167C5.125 7.60208 5.45955 6.79774 6.12865 6.12865C6.79774 5.45955 7.60208 5.125 8.54167 5.125H32.4583C33.3979 5.125 34.2023 5.45955 34.8714 6.12865C35.5405 6.79774 35.875 7.60208 35.875 8.54167V19.9448C35.334 19.6885 34.7788 19.475 34.2094 19.3042C33.6399 19.1333 33.0562 19.0052 32.4583 18.9198V8.54167H8.54167V32.5438H18.9198C19.0622 33.4264 19.2828 34.2663 19.5818 35.0635C19.8807 35.8608 20.2722 36.6153 20.7563 37.3271L20.5 37.5833L17.9375 35.0208L15.375 37.5833L12.8125 35.0208L10.25 37.5833L7.6875 35.0208L5.125 37.5833ZM10.25 29.0417H18.9198C19.0052 28.4438 19.1333 27.8601 19.3042 27.2906C19.475 26.7212 19.6885 26.166 19.9448 25.625H10.25V29.0417ZM10.25 22.2083H22.3792C23.4611 21.1549 24.721 20.322 26.1589 19.7099C27.5967 19.0977 29.1271 18.7917 30.75 18.7917H10.25V22.2083Z" fill="#FFF9D7"/>
</svg>
