<svg width="36" height="36" viewBox="0 0 36 36" fill="none" xmlns="http://www.w3.org/2000/svg">
<path d="M17.5745 14.0297C17.247 13.7023 17.0833 13.2965 17.0833 12.8125C17.0833 12.3285 17.247 11.9227 17.5745 11.5953C17.9019 11.2679 18.3076 11.1042 18.7917 11.1042C19.2757 11.1042 19.6814 11.2679 20.0089 11.5953C20.3363 11.9227 20.5 12.3285 20.5 12.8125C20.5 13.2965 20.3363 13.7023 20.0089 14.0297C19.6814 14.3571 19.2757 14.5208 18.7917 14.5208C18.3076 14.5208 17.9019 14.3571 17.5745 14.0297ZM17.0833 8.54167V0H20.5V8.54167H17.0833ZM7.83698 34.8714C7.16788 34.2023 6.83333 33.3979 6.83333 32.4583C6.83333 31.5187 7.16788 30.7144 7.83698 30.0453C8.50608 29.3762 9.31042 29.0417 10.25 29.0417C11.1896 29.0417 11.9939 29.3762 12.663 30.0453C13.3321 30.7144 13.6667 31.5187 13.6667 32.4583C13.6667 33.3979 13.3321 34.2023 12.663 34.8714C11.9939 35.5405 11.1896 35.875 10.25 35.875C9.31042 35.875 8.50608 35.5405 7.83698 34.8714ZM24.9203 34.8714C24.2512 34.2023 23.9167 33.3979 23.9167 32.4583C23.9167 31.5187 24.2512 30.7144 24.9203 30.0453C25.5894 29.3762 26.3938 29.0417 27.3333 29.0417C28.2729 29.0417 29.0773 29.3762 29.7464 30.0453C30.4155 30.7144 30.75 31.5187 30.75 32.4583C30.75 33.3979 30.4155 34.2023 29.7464 34.8714C29.0773 35.5405 28.2729 35.875 27.3333 35.875C26.3938 35.875 25.5894 35.5405 24.9203 34.8714ZM0 5.125V1.70833H5.59479L12.8552 17.0833H24.8135L31.476 5.125H35.3625L27.8458 18.7062C27.5326 19.2757 27.1127 19.717 26.5859 20.0302C26.0592 20.3434 25.4826 20.5 24.8563 20.5H12.1292L10.25 23.9167H30.75V27.3333H10.25C8.96875 27.3333 7.99358 26.7781 7.32448 25.6677C6.65538 24.5573 6.63403 23.4326 7.26042 22.2938L9.56667 18.1083L3.41667 5.125H0Z" fill="#FFF9D7"/>
</svg>
