<svg width="55" height="55" viewBox="0 0 55 55" fill="none" xmlns="http://www.w3.org/2000/svg">
<path d="M36.0208 39.8125L39.8125 36.0208L29.7917 26V13.5417H24.375V28.1667L36.0208 39.8125ZM27.0833 54.1667C23.3368 54.1667 19.816 53.4557 16.5208 52.0339C13.2257 50.612 10.3594 48.6823 7.92188 46.2448C5.48438 43.8073 3.55469 40.941 2.13281 37.6458C0.710938 34.3507 0 30.8299 0 27.0833C0 23.3368 0.710938 19.816 2.13281 16.5208C3.55469 13.2257 5.48438 10.3594 7.92188 7.92188C10.3594 5.48438 13.2257 3.55469 16.5208 2.13281C19.816 0.710938 23.3368 0 27.0833 0C30.8299 0 34.3507 0.710938 37.6458 2.13281C40.941 3.55469 43.8073 5.48438 46.2448 7.92188C48.6823 10.3594 50.612 13.2257 52.0339 16.5208C53.4557 19.816 54.1667 23.3368 54.1667 27.0833C54.1667 30.8299 53.4557 34.3507 52.0339 37.6458C50.612 40.941 48.6823 43.8073 46.2448 46.2448C43.8073 48.6823 40.941 50.612 37.6458 52.0339C34.3507 53.4557 30.8299 54.1667 27.0833 54.1667ZM27.0833 48.75C33.0868 48.75 38.1988 46.6398 42.4193 42.4193C46.6398 38.1988 48.75 33.0868 48.75 27.0833C48.75 21.0799 46.6398 15.9679 42.4193 11.7474C38.1988 7.52691 33.0868 5.41667 27.0833 5.41667C21.0799 5.41667 15.9679 7.52691 11.7474 11.7474C7.52691 15.9679 5.41667 21.0799 5.41667 27.0833C5.41667 33.0868 7.52691 38.1988 11.7474 42.4193C15.9679 46.6398 21.0799 48.75 27.0833 48.75Z" fill="#385E31"/>
</svg>
