<svg width="49" height="55" viewBox="0 0 49 55" fill="none" xmlns="http://www.w3.org/2000/svg">
<path d="M26.3047 42.5547C26.8238 42.0356 27.0833 41.3924 27.0833 40.625C27.0833 39.8576 26.8238 39.2144 26.3047 38.6953C25.7856 38.1762 25.1424 37.9167 24.375 37.9167C23.6076 37.9167 22.9644 38.1762 22.4453 38.6953C21.9262 39.2144 21.6667 39.8576 21.6667 40.625C21.6667 41.3924 21.9262 42.0356 22.4453 42.5547C22.9644 43.0738 23.6076 43.3333 24.375 43.3333C25.1424 43.3333 25.7856 43.0738 26.3047 42.5547ZM21.6667 32.5H27.0833V16.25H21.6667V32.5ZM5.41667 54.1667C3.92708 54.1667 2.65191 53.6363 1.59115 52.5755C0.530382 51.5148 0 50.2396 0 48.75V10.8333C0 9.34375 0.530382 8.06858 1.59115 7.00781C2.65191 5.94705 3.92708 5.41667 5.41667 5.41667H16.7917C17.3785 3.79167 18.3602 2.48264 19.737 1.48958C21.1137 0.496528 22.6597 0 24.375 0C26.0903 0 27.6363 0.496528 29.013 1.48958C30.3898 2.48264 31.3715 3.79167 31.9583 5.41667H43.3333C44.8229 5.41667 46.0981 5.94705 47.1589 7.00781C48.2196 8.06858 48.75 9.34375 48.75 10.8333V48.75C48.75 50.2396 48.2196 51.5148 47.1589 52.5755C46.0981 53.6363 44.8229 54.1667 43.3333 54.1667H5.41667ZM5.41667 48.75H43.3333V10.8333H5.41667V48.75ZM25.8307 8.22656C26.2144 7.84288 26.4063 7.35764 26.4063 6.77083C26.4063 6.18403 26.2144 5.69878 25.8307 5.3151C25.447 4.93142 24.9618 4.73958 24.375 4.73958C23.7882 4.73958 23.303 4.93142 22.9193 5.3151C22.5356 5.69878 22.3438 6.18403 22.3438 6.77083C22.3438 7.35764 22.5356 7.84288 22.9193 8.22656C23.303 8.61024 23.7882 8.80208 24.375 8.80208C24.9618 8.80208 25.447 8.61024 25.8307 8.22656Z" fill="#385E31"/>
</svg>
