<svg width="22" height="22" viewBox="0 0 22 22" fill="none" xmlns="http://www.w3.org/2000/svg">
<path d="M13.275 9L9.025 4.75L10.45 3.35L13.275 6.175L18.95 0.525L20.35 1.925L13.275 9ZM7.35 16.45L14.3 18.35L18.475 17.075L17.35 15.95H14.3C13.9667 15.95 13.6417 15.9375 13.325 15.9125C13.0083 15.8875 12.7 15.8167 12.4 15.7L10.075 14.925L10.625 12.975L12.65 13.65C12.9167 13.7333 13.1875 13.8042 13.4625 13.8625C13.7375 13.9208 14.0167 13.95 14.3 13.95H15.35L14.375 12.975L8.95 10.95H7.35V16.45ZM1.35 19.95V8.95H8.95C9.06667 8.95 9.18333 8.9625 9.3 8.9875C9.41667 9.0125 9.525 9.04167 9.625 9.075L10.95 9.55L20.075 18.65L14.35 20.45L7.35 18.5V19.95H1.35ZM3.35 17.95H5.35V10.95H3.35V17.95ZM21.3 19.9L19.9 21.3L0 1.4L1.4 0L21.3 19.9Z" fill="#385E31"/>
</svg>
