<svg width="20" height="22" viewBox="0 0 20 22" fill="none" xmlns="http://www.w3.org/2000/svg">
<path d="M11.6 22C10.2333 22 8.95 21.6875 7.75 21.0625C6.55 20.4375 5.56667 19.5667 4.8 18.45L0 11.4L0.475 10.925C0.808333 10.575 1.22083 10.375 1.7125 10.325C2.20417 10.275 2.65 10.3917 3.05 10.675L5.8 12.575V3C5.8 2.71667 5.89583 2.47917 6.0875 2.2875C6.27917 2.09583 6.51667 2 6.8 2C7.08333 2 7.32083 2.09583 7.5125 2.2875C7.70417 2.47917 7.8 2.71667 7.8 3V16.425L4.1 13.85L6.475 17.3C7.05833 18.15 7.8 18.8125 8.7 19.2875C9.6 19.7625 10.5667 20 11.6 20C13.3167 20 14.7792 19.3958 15.9875 18.1875C17.1958 16.9792 17.8 15.5167 17.8 13.8V4C17.8 3.71667 17.8958 3.47917 18.0875 3.2875C18.2792 3.09583 18.5167 3 18.8 3C19.0833 3 19.3208 3.09583 19.5125 3.2875C19.7042 3.47917 19.8 3.71667 19.8 4V13.8C19.8 16.0833 19.0042 18.0208 17.4125 19.6125C15.8208 21.2042 13.8833 22 11.6 22ZM9.8 11V1C9.8 0.716667 9.89583 0.479167 10.0875 0.2875C10.2792 0.0958333 10.5167 0 10.8 0C11.0833 0 11.3208 0.0958333 11.5125 0.2875C11.7042 0.479167 11.8 0.716667 11.8 1V11H9.8ZM13.8 11V2C13.8 1.71667 13.8958 1.47917 14.0875 1.2875C14.2792 1.09583 14.5167 1 14.8 1C15.0833 1 15.3208 1.09583 15.5125 1.2875C15.7042 1.47917 15.8 1.71667 15.8 2V11H13.8Z" fill="#385E31"/>
</svg>
