<svg width="53" height="55" viewBox="0 0 53 55" fill="none" xmlns="http://www.w3.org/2000/svg">
<path d="M43.3333 47.1927L37.5781 52.8802L33.7865 49.0885L39.474 43.3333L33.7865 37.5781L37.5781 33.7865L43.3333 39.474L49.0885 33.7865L52.8802 37.5781L47.1927 43.3333L52.8802 49.0885L49.0885 52.8802L43.3333 47.1927ZM8.125 54.1667C5.86806 54.1667 3.94965 53.3767 2.36979 51.7969C0.78993 50.217 0 48.2986 0 46.0417V37.9167H8.125V0H48.75V28.099C47.8924 27.783 47.0121 27.546 46.1094 27.388C45.2066 27.23 44.2812 27.151 43.3333 27.151V5.41667H13.5417V37.9167H28.0312C27.7153 38.7743 27.4783 39.6545 27.3203 40.5573C27.1623 41.4601 27.0833 42.3854 27.0833 43.3333H5.41667V46.0417C5.41667 46.809 5.67621 47.4523 6.19531 47.9714C6.71441 48.4905 7.35764 48.75 8.125 48.75H28.0312C28.3924 49.7882 28.8437 50.7587 29.3854 51.6615C29.9271 52.5642 30.559 53.3993 31.2812 54.1667H8.125ZM16.25 18.9583V13.5417H40.625V18.9583H16.25ZM16.25 27.0833V21.6667H40.625V27.0833H16.25Z" fill="#385E31"/>
</svg>
