<svg width="26" height="22" viewBox="0 0 26 22" fill="none" xmlns="http://www.w3.org/2000/svg">
<path d="M14.56 0.231149C14.8815 0.320271 15.2029 0.409393 15.5341 0.501215C16.4989 0.781542 17.4493 1.09781 18.3991 1.42815C18.7959 1.56345 19.1945 1.69297 19.5948 1.81654C21.5916 2.43423 23.28 2.97086 24.4184 4.88346C25.0413 6.08129 25.5237 7.33491 26 8.60115C25.2703 9.52729 24.9072 9.51941 23.66 9.95115C23.5742 12.446 23.4884 14.9408 23.4 17.5112C22.3419 17.9205 21.2836 18.329 20.2246 18.7356C19.8657 18.8736 19.5069 19.0121 19.1483 19.1511C18.2842 19.4859 17.4189 19.8143 16.5479 20.1293C15.6293 20.4556 15.6293 20.4556 14.8811 20.8172C12.4221 21.8303 10.1034 20.5323 7.78375 19.6037C7.33799 19.4324 6.89196 19.2619 6.44566 19.0921C3.39858 17.9258 3.39858 17.9258 2.6 17.5112C2.5142 15.0164 2.4284 12.5216 2.34 9.95115C1.1817 9.41655 1.1817 9.41655 0 8.87115C0.146686 7.61683 0.665692 6.66709 1.3 5.61427C1.39083 5.44913 1.48165 5.28398 1.57523 5.11383C2.43959 3.67736 3.43989 3.22661 4.94 2.66115C5.35224 2.49321 5.35224 2.49321 5.77281 2.32187C6.70465 1.94509 7.64135 1.58484 8.58 1.22677C9.05559 1.03752 9.05559 1.03752 9.54078 0.84445C11.3449 0.159597 12.6907 -0.299813 14.56 0.231149ZM13.78 1.85115C13.78 3.45495 13.78 5.05875 13.78 6.71115C14.8154 6.36483 15.8498 6.01573 16.8837 5.6649C17.1792 5.5664 17.4746 5.4679 17.779 5.36642C18.0597 5.27071 18.3404 5.175 18.6296 5.07638C18.8897 4.98872 19.1497 4.90106 19.4177 4.81073C20.0609 4.61353 20.0609 4.61353 20.28 4.01115C19.3437 3.64903 18.4063 3.28982 17.4687 2.93115C17.2025 2.82813 16.9362 2.72511 16.6618 2.61896C16.4063 2.52151 16.1507 2.42406 15.8874 2.32365C15.6519 2.23316 15.4163 2.14266 15.1736 2.04943C14.543 1.81104 14.543 1.81104 13.78 1.85115ZM3.64 5.09115C3.1252 5.89305 2.6104 6.69495 2.08 7.52115C2.1658 7.78845 2.2516 8.05575 2.34 8.33115C3.0802 8.6994 3.0802 8.6994 3.99648 9.00088C4.16224 9.05966 4.328 9.11844 4.49878 9.17901C4.84953 9.30277 5.20078 9.425 5.55249 9.54582C6.09165 9.73105 6.62927 9.92054 7.16676 10.1109C8.75142 10.7544 8.75142 10.7544 10.4 11.0312C10.618 10.6382 10.8344 10.2443 11.05 9.8499C11.1707 9.63063 11.2913 9.41136 11.4156 9.18545C11.7391 8.62994 11.7391 8.62994 11.7 8.06115C9.0402 7.08105 6.3804 6.10095 3.64 5.09115ZM19.8859 5.95177C19.6458 6.04167 19.6458 6.04167 19.4007 6.13338C18.8916 6.32436 18.3833 6.51772 17.875 6.71115C17.5291 6.84138 17.1831 6.97146 16.837 7.10138C15.9907 7.41951 15.1452 7.73976 14.3 8.06115C14.6344 9.15139 15 10.0682 15.6 11.0312C18.394 10.3465 21.3439 9.39875 23.92 8.06115C23.5736 7.09259 23.2156 6.1937 22.62 5.36115C21.536 5.36115 20.8972 5.5699 19.8859 5.95177ZM12.74 9.68115C12.3256 10.2883 12.3256 10.2883 11.9275 11.0312C11.7874 11.2817 11.6473 11.5323 11.503 11.7905C11.3964 11.9854 11.2898 12.1803 11.18 12.3812C9.28396 12.3096 7.68064 11.7339 5.91913 11.0537C4.93657 10.6411 4.93657 10.6411 3.9 10.4912C3.9 12.4514 3.9 14.4116 3.9 16.4312C6.6456 17.4113 9.3912 18.3914 12.22 19.4012C12.3058 17.6192 12.3916 15.8372 12.48 14.0012C12.8232 14.0012 13.1664 14.0012 13.52 14.0012C13.6058 15.7832 13.6916 17.5652 13.78 19.4012C14.3152 19.2094 14.8505 19.0176 15.402 18.82C15.9208 18.6341 16.4397 18.4483 16.9586 18.2624C17.319 18.1333 17.6793 18.0042 18.0397 17.8751C18.558 17.6894 19.0762 17.5038 19.5945 17.3181C19.9063 17.2064 20.2181 17.0947 20.5393 16.9797C21.0587 16.7944 21.579 16.6115 22.1 16.4312C22.1 14.471 22.1 12.5108 22.1 10.4912C20.6088 10.8934 19.1663 11.3155 17.7287 11.8918C15.6581 12.6645 15.6581 12.6645 14.82 12.3812C14.348 11.7033 13.9669 11.0149 13.5972 10.2718C13.4859 10.0769 13.3746 9.88196 13.26 9.68115C13.0884 9.68115 12.9168 9.68115 12.74 9.68115Z" fill="#385E31"/>
</svg>
