<svg width="21" height="21" viewBox="0 0 21 21" fill="none" xmlns="http://www.w3.org/2000/svg">
<path d="M3 3H15C15.2833 3 15.5208 3.09583 15.7125 3.2875C15.9042 3.47917 16 3.71667 16 4C16 4.28333 15.9042 4.52083 15.7125 4.7125C15.5208 4.90417 15.2833 5 15 5H3C2.71667 5 2.47917 4.90417 2.2875 4.7125C2.09583 4.52083 2 4.28333 2 4C2 3.71667 2.09583 3.47917 2.2875 3.2875C2.47917 3.09583 2.71667 3 3 3ZM5 0H13C13.2833 0 13.5208 0.0958333 13.7125 0.2875C13.9042 0.479167 14 0.716667 14 1C14 1.28333 13.9042 1.52083 13.7125 1.7125C13.5208 1.90417 13.2833 2 13 2H5C4.71667 2 4.47917 1.90417 4.2875 1.7125C4.09583 1.52083 4 1.28333 4 1C4 0.716667 4.09583 0.479167 4.2875 0.2875C4.47917 0.0958333 4.71667 0 5 0ZM2.4 8L2.75 10.15C2.98333 11.5833 3.29167 13.5333 3.675 16L2.4 8ZM8.825 18H2L0 6H18L17.65 8H2.4L3.675 16H8.225C8.275 16.3667 8.35417 16.7167 8.4625 17.05C8.57083 17.3833 8.69167 17.7 8.825 18ZM14.175 20.025L13.875 18.525C13.675 18.4417 13.4875 18.3542 13.3125 18.2625C13.1375 18.1708 12.9583 18.0583 12.775 17.925L11.325 18.375L10.325 16.675L11.475 15.675C11.4417 15.4583 11.425 15.2417 11.425 15.025C11.425 14.8083 11.4417 14.5917 11.475 14.375L10.325 13.375L11.325 11.675L12.775 12.125C12.9583 11.9917 13.1375 11.8792 13.3125 11.7875C13.4875 11.6958 13.675 11.6083 13.875 11.525L14.175 10.025H16.175L16.475 11.525C16.675 11.6083 16.8625 11.6958 17.0375 11.7875C17.2125 11.8792 17.3917 11.9917 17.575 12.125L19.025 11.675L20.025 13.375L18.875 14.375C18.9083 14.5917 18.925 14.8083 18.925 15.025C18.925 15.2417 18.9083 15.4583 18.875 15.675L20.025 16.675L19.025 18.375L17.575 17.925C17.3917 18.0583 17.2125 18.1708 17.0375 18.2625C16.8625 18.3542 16.675 18.4417 16.475 18.525L16.175 20.025H14.175ZM16.5875 16.4375C16.9792 16.0458 17.175 15.575 17.175 15.025C17.175 14.475 16.9792 14.0042 16.5875 13.6125C16.1958 13.2208 15.725 13.025 15.175 13.025C14.625 13.025 14.1542 13.2208 13.7625 13.6125C13.3708 14.0042 13.175 14.475 13.175 15.025C13.175 15.575 13.3708 16.0458 13.7625 16.4375C14.1542 16.8292 14.625 17.025 15.175 17.025C15.725 17.025 16.1958 16.8292 16.5875 16.4375Z" fill="#FFF9D7"/>
</svg>
