<svg width="65" height="65" viewBox="0 0 65 65" fill="none" xmlns="http://www.w3.org/2000/svg">
<path d="M10.832 54.167V19.2295L5.55078 7.71908L10.4258 5.41699L16.7904 19.0941H48.207L54.5716 5.41699L59.4466 7.71908L54.1654 19.2295V54.167H10.832ZM27.082 35.2087H37.9154C38.6827 35.2087 39.326 34.9491 39.845 34.43C40.3641 33.9109 40.6237 33.2677 40.6237 32.5003C40.6237 31.733 40.3641 31.0897 39.845 30.5706C39.326 30.0515 38.6827 29.792 37.9154 29.792H27.082C26.3147 29.792 25.6714 30.0515 25.1523 30.5706C24.6332 31.0897 24.3737 31.733 24.3737 32.5003C24.3737 33.2677 24.6332 33.9109 25.1523 34.43C25.6714 34.9491 26.3147 35.2087 27.082 35.2087ZM16.2487 48.7503H48.7487V24.5107H16.2487V48.7503Z" fill="#385E31"/>
</svg>
