<svg width="65" height="65" viewBox="0 0 65 65" fill="none" xmlns="http://www.w3.org/2000/svg">
<path d="M45.2643 29.0133C45.7834 28.4942 46.043 27.851 46.043 27.0837C46.043 26.3163 45.7834 25.6731 45.2643 25.154C44.7452 24.6349 44.102 24.3753 43.3346 24.3753C42.5673 24.3753 41.924 24.6349 41.4049 25.154C40.8859 25.6731 40.6263 26.3163 40.6263 27.0837C40.6263 27.851 40.8859 28.4942 41.4049 29.0133C41.924 29.5324 42.5673 29.792 43.3346 29.792C44.102 29.792 44.7452 29.5324 45.2643 29.0133ZM21.668 24.3753H35.2096V18.9587H21.668V24.3753ZM12.1888 56.8753C10.6541 51.7295 9.14193 46.5949 7.65234 41.4717C6.16276 36.3484 5.41797 31.101 5.41797 25.7295C5.41797 21.5767 6.86241 18.0559 9.7513 15.167C12.6402 12.2781 16.161 10.8337 20.3138 10.8337H33.8555C35.1645 9.11838 36.7556 7.78678 38.6289 6.83887C40.5022 5.89095 42.5221 5.41699 44.6888 5.41699C45.8173 5.41699 46.7765 5.81196 47.5664 6.60189C48.3563 7.39182 48.7513 8.35102 48.7513 9.47949C48.7513 9.75033 48.7174 10.0212 48.6497 10.292C48.582 10.5628 48.503 10.8111 48.4128 11.0368C48.2322 11.5333 48.0629 12.0411 47.9049 12.5602C47.747 13.0793 47.6228 13.6097 47.5326 14.1514L53.694 20.3128H59.5846V39.2034L51.9336 41.7087L47.3971 56.8753H32.5013V51.4587H27.0846V56.8753H12.1888ZM16.2513 51.4587H21.668V46.042H37.918V51.4587H43.3346L47.5326 37.5107L54.168 35.2764V25.7295H51.4596L41.9805 16.2503C41.9805 15.3475 42.0369 14.4786 42.1497 13.6436C42.2626 12.8085 42.4319 11.9621 42.6576 11.1045C41.3485 11.4656 40.1975 12.0863 39.2044 12.9665C38.2114 13.8467 37.4892 14.9413 37.0378 16.2503H20.3138C17.6957 16.2503 15.4614 17.1757 13.6107 19.0264C11.76 20.8771 10.8346 23.1114 10.8346 25.7295C10.8346 30.1531 11.444 34.4751 12.6628 38.6956C13.8815 42.9161 15.0777 47.1705 16.2513 51.4587Z" fill="#385E31"/>
</svg>
