<svg width="58" height="52" viewBox="0 0 58 52" fill="none" xmlns="http://www.w3.org/2000/svg">
<path d="M54.1667 45.2292L46.0417 37.1042L49.8333 33.3125L57.9583 41.4375L54.1667 45.2292ZM44.4167 12.7292L40.625 8.9375L48.75 0.8125L52.5417 4.60417L44.4167 12.7292ZM13.5417 12.7292L5.41667 4.60417L9.20833 0.8125L17.3333 8.9375L13.5417 12.7292ZM3.79167 45.2292L0 41.4375L8.125 33.3125L11.9167 37.1042L3.79167 45.2292ZM20.4479 40.151L28.9792 35.0052L37.5104 40.2187L35.276 30.4687L42.7917 23.9687L32.9062 23.0885L28.9792 13.8802L25.0521 23.0208L15.1667 23.901L22.6823 30.4687L20.4479 40.151ZM12.2552 51.4583L16.6562 32.4323L1.89583 19.6354L21.3958 17.9427L28.9792 0L36.5625 17.9427L56.0625 19.6354L41.3021 32.4323L45.7031 51.4583L28.9792 41.3698L12.2552 51.4583Z" fill="#385E31"/>
</svg>
