<svg width="41" height="41" viewBox="0 0 41 41" fill="none" xmlns="http://www.w3.org/2000/svg">
<path d="M10.25 37.5834C8.82639 37.5834 7.61632 37.0852 6.61979 36.0886C5.62326 35.0921 5.125 33.882 5.125 32.4584V27.3334H10.25V3.41675L12.8125 5.97925L15.375 3.41675L17.9375 5.97925L20.5 3.41675L23.0625 5.97925L25.625 3.41675L28.1875 5.97925L30.75 3.41675L33.3125 5.97925L35.875 3.41675V32.4584C35.875 33.882 35.3767 35.0921 34.3802 36.0886C33.3837 37.0852 32.1736 37.5834 30.75 37.5834H10.25ZM30.75 34.1667C31.234 34.1667 31.6398 34.003 31.9672 33.6756C32.2946 33.3482 32.4583 32.9424 32.4583 32.4584V8.54175H13.6667V27.3334H29.0417V32.4584C29.0417 32.9424 29.2054 33.3482 29.5328 33.6756C29.8602 34.003 30.266 34.1667 30.75 34.1667ZM15.375 15.3751V11.9584H25.625V15.3751H15.375ZM15.375 20.5001V17.0834H25.625V20.5001H15.375ZM29.0417 15.3751C28.5576 15.3751 28.1519 15.2114 27.8245 14.8839C27.497 14.5565 27.3333 14.1508 27.3333 13.6667C27.3333 13.1827 27.497 12.777 27.8245 12.4496C28.1519 12.1221 28.5576 11.9584 29.0417 11.9584C29.5257 11.9584 29.9314 12.1221 30.2589 12.4496C30.5863 12.777 30.75 13.1827 30.75 13.6667C30.75 14.1508 30.5863 14.5565 30.2589 14.8839C29.9314 15.2114 29.5257 15.3751 29.0417 15.3751ZM29.0417 20.5001C28.5576 20.5001 28.1519 20.3364 27.8245 20.0089C27.497 19.6815 27.3333 19.2758 27.3333 18.7917C27.3333 18.3077 27.497 17.902 27.8245 17.5746C28.1519 17.2471 28.5576 17.0834 29.0417 17.0834C29.5257 17.0834 29.9314 17.2471 30.2589 17.5746C30.5863 17.902 30.75 18.3077 30.75 18.7917C30.75 19.2758 30.5863 19.6815 30.2589 20.0089C29.9314 20.3364 29.5257 20.5001 29.0417 20.5001ZM10.25 34.1667H25.625V30.7501H8.54167V32.4584C8.54167 32.9424 8.70538 33.3482 9.03281 33.6756C9.36024 34.003 9.76597 34.1667 10.25 34.1667Z" fill="#FFF9D7"/>
</svg>
